HIERARCHY
ROOT Hips
{
  OFFSET 4.28047 104.547 155.35
  CHANNELS 6 Xposition Yposition Zposition Zrotation Xrotation Yrotation
  JOINT RightUpLeg
  {
    OFFSET -8.9458 -8.66707 0.101652
    CHANNELS 3 Zrotation Xrotation Yrotation
    JOINT RightLeg
    {
      OFFSET 0 -44.4227 1.3727
      CHANNELS 3 Zrotation Xrotation Yrotation
      JOINT RightFoot
      {
        OFFSET 0.253549 -42.0924 -1.46059
        CHANNELS 3 Zrotation Xrotation Yrotation
        JOINT RightToes
        {
          OFFSET 0.04 -4.41509 8.4991
          CHANNELS 3 Zrotation Xrotation Yrotation
          End Site
          {
            OFFSET -0.08 -0.137448 9.77979
          }
        }
      }
    }
  }
  JOINT Spine
  {
    OFFSET 0 11.8905 0
    CHANNELS 3 Zrotation Xrotation Yrotation
    JOINT Spine1
    {
      OFFSET 0 25.6574 0.127663
      CHANNELS 3 Zrotation Xrotation Yrotation
      JOINT HEad
      {
        OFFSET 0 8.73416 0.011341
        CHANNELS 3 Zrotation Xrotation Yrotation
        End Site
        {
          OFFSET -0.29 12.7742 2.51395
        }
      }
      JOINT LeftShoulder1
      {
        OFFSET 8.99 -0.362252 -0.22
        CHANNELS 3 Zrotation Xrotation Yrotation
        JOINT LeftArm
        {
          OFFSET 10.2827 -0.00338 0.322123
          CHANNELS 3 Zrotation Xrotation Yrotation
          JOINT LeftForeArm
          {
            OFFSET 32.7669 0.099144 -1.42434
            CHANNELS 3 Zrotation Xrotation Yrotation
            JOINT LeftHand
            {
              OFFSET 27.5643 0.085362 1.02216
              CHANNELS 3 Zrotation Xrotation Yrotation
              End Site
              {
                OFFSET 16.7443 -0.6 1.50291
              }
            }
          }
        }
      }
      JOINT RightShoulder
      {
        OFFSET -8.99 -0.362252 -0.22
        CHANNELS 3 Zrotation Xrotation Yrotation
        JOINT RightArm
        {
          OFFSET -10.2827 -0.00338 0.322123
          CHANNELS 3 Zrotation Xrotation Yrotation
          JOINT RightForeArm
          {
            OFFSET -32.8971 0.099144 -1.42434
            CHANNELS 3 Zrotation Xrotation Yrotation
            JOINT RightHand
            {
              OFFSET -27.4921 0.085362 1.02216
              CHANNELS 3 Zrotation Xrotation Yrotation
              End Site
              {
                OFFSET -16.6312 -0.6 1.50291
              }
            }
          }
        }
      }
    }
  }
  JOINT LeftUpLeg
  {
    OFFSET 8.9458 -8.66707 0.101652
    CHANNELS 3 Zrotation Xrotation Yrotation
    JOINT LeftLeg
    {
      OFFSET 0 -44.4227 1.3727
      CHANNELS 3 Zrotation Xrotation Yrotation
      JOINT LeftFoot
      {
        OFFSET -0.253549 -42.0924 -1.46059
        CHANNELS 3 Zrotation Xrotation Yrotation
        JOINT LeftToes
        {
          OFFSET -0.04 -4.41509 8.4991
          CHANNELS 3 Zrotation Xrotation Yrotation
          End Site
          {
            OFFSET 0.08 -0.047448 9.77979
          }
        }
      }
    }
  }
}
MOTION
Frames:	14
Frame Time:	0.0166667
4.01102 102.971 -23.2195 -0.442884 3.15888 177.681 2.7917 1.08316 -12.7893 -11.6901 48.4907 -2.40423 3.47776 -11.0606 0.0169765 6.70737 13.3842 7.26317 3.7595 2.89971 -0.526758 -0.42493 11.4202 0.094232 4.03824 -4.78631 15.4158 -4.96962e-016 -1.59028e-015 3.97569e-016 -86.5024 -33.995 -5.99469 -27.7362 11.905 -7.06787 0.368473 9.90896 -0.00117926 -18.3453 -1.14834 11.5285 103.41 -10.8789 29.7744 18.7869 14.6973 14.8873 -0.369625 9.91382 0.00119886 -3.02496 -10.7176 -10.0537 0.92598 4.50808 45.2687 -30.5619 3.71123 2.04302 9.21725e-012 -3.54473e-011 2.05559e-011 
3.61419 103.191 -25.1068 -0.998135 3.17808 177.599 1.12649 -1.38246 -14.4966 -14.736 52.1667 -0.772989 5.25847 -6.83499 -0.0816192 7.83153 17.11 8.50183 3.48462 2.98778 -0.602923 -0.756 11.4303 0.117681 3.84982 -4.5558 15.4507 -5.96354e-016 0 -0 -86.8719 -33.9914 -6.42787 -27.6486 11.9492 -7.21478 0.368473 9.90896 -0.00117926 -18.6844 -1.18849 11.4714 104.018 -11.3941 29.2072 18.5411 14.503 13.8272 -0.369625 9.91382 0.00119886 -3.85921 -9.44182 -10.5117 0.790268 4.33939 45.4109 -30.7742 3.0504 1.87883 9.21566e-012 -3.54473e-011 2.05623e-011 
3.22488 103.362 -26.8872 -1.46356 3.06173 177.418 -0.43417 -4.25637 -15.9775 -18.4744 55.9287 1.67518 6.52759 -3.18487 -0.198514 8.03021 18.2476 8.37706 3.09705 3.09507 -0.598744 -0.853506 11.4011 0.120783 3.53884 -4.39751 15.516 -3.97569e-016 -1.59028e-015 1.19271e-015 -87.3539 -33.8311 -6.97566 -27.5691 12.0154 -7.47016 0.368473 9.90896 -0.00117926 -18.97 -1.214 11.3201 104.47 -11.9159 28.7215 18.2969 14.3133 12.7953 -0.369625 9.91382 0.00119886 -4.60037 -8.38415 -10.8652 0.679055 4.19477 45.6023 -30.9106 2.35404 1.69993 9.21248e-012 -3.54536e-011 2.05623e-011 
2.87618 103.507 -28.5412 -1.78815 2.74795 177.235 -1.40707 -7.26989 -16.4835 -21.3874 59.5115 3.31094 5.95177 -1.70528 -0.24048 7.30711 16.7073 7.61961 2.54954 3.21466 -0.488862 -0.635276 11.2798 0.0950815 3.15333 -4.45537 15.519 1.78906e-015 1.59028e-015 -3.97569e-016 -87.7412 -33.1567 -7.51444 -27.6318 12.1281 -8.06815 0.368473 9.90896 -0.00117926 -18.9925 -1.18867 10.9753 104.514 -12.5042 28.2732 18.1176 14.1472 11.8969 -0.369625 9.91382 0.00119886 -5.20515 -7.66862 -11.496 0.580686 4.14327 45.8268 -30.9232 1.59601 1.49936 9.20771e-012 -3.54536e-011 2.05623e-011 
2.56514 103.632 -30.1177 -1.97421 2.32395 176.989 -1.96548 -10.3878 -16.15 -23.435 62.833 4.26869 4.7152 -1.46152 -0.24555 6.13337 14.0476 6.48892 2.03819 3.3169 -0.345537 -0.279492 11.1239 0.0583869 2.77644 -4.65973 15.5345 0 1.59028e-015 -0 -88.037 -32.2047 -8.10784 -27.761 12.2596 -8.81301 0.368473 9.90896 -0.00117926 -18.8707 -1.1486 10.68 104.341 -13.1469 27.875 17.965 14.0121 11.1692 -0.369625 9.91382 0.00119886 -5.65176 -7.16893 -11.8724 0.526239 4.1895 45.8831 -30.9341 0.815521 1.29005 9.21566e-012 -3.54441e-011 2.05559e-011 
2.30143 103.762 -31.6656 -1.96618 1.81828 176.629 -2.04454 -13.5134 -14.6129 -23.4606 65.7587 3.56348 3.5771 -2.20554 -0.209094 5.14705 12.0931 5.50091 1.83247 3.35438 -0.247326 0.0540162 10.9096 0.0275082 2.5106 -5.0007 15.5976 1.59028e-015 1.59028e-015 3.97569e-016 -88.0911 -31.0279 -8.67908 -27.9722 12.4084 -9.70067 0.368473 9.90896 -0.00117926 -18.6119 -1.12094 10.7445 104.027 -13.9142 27.5022 17.8196 13.93 10.726 -0.369625 9.91382 0.00119886 -5.8679 -6.80427 -11.3931 0.577597 4.30891 45.4319 -31.0655 0.0424649 1.08179 9.21407e-012 -3.54441e-011 2.05464e-011 
2.08021 103.862 -33.1647 -1.88939 1.34526 176.213 -1.69347 -16.5685 -12.4761 -22.2228 68.1603 1.88285 2.51347 -3.47256 -0.16408 4.13379 10.0096 4.48848 1.66835 3.3735 -0.150149 0.392984 10.8273 -0.00313581 2.34869 -5.44219 15.7369 -6.95746e-016 0 7.95139e-016 -88.1649 -29.818 -9.53229 -28.1317 12.5232 -10.3889 0.368473 9.90896 -0.00117926 -18.3448 -1.09728 10.8681 103.668 -14.6181 27.2235 17.6925 13.878 10.4411 -0.369625 9.91382 0.00119886 -6.00142 -6.55621 -10.6586 0.640992 4.66754 44.8738 -31.2647 -0.721094 0.876519 9.21566e-012 -3.54441e-011 2.05559e-011 
1.90041 103.886 -34.5858 -1.87554 1.04072 175.717 -1.14122 -19.4427 -10.1803 -20.8946 69.8958 0.313276 1.80195 -4.65751 -0.147814 2.97153 7.26387 3.35001 1.3284 3.40989 -0.0282325 0.712607 11.1393 -0.0334276 2.32804 -5.98903 16.1016 -3.97569e-016 0 7.95139e-016 -88.5415 -28.8595 -11.0703 -28.1014 12.5417 -10.4487 0.368473 9.90896 -0.00117926 -18.3163 -1.0923 10.8624 103.479 -15.0048 27.1883 17.5621 13.8365 10.2093 -0.369625 9.91382 0.00119886 -6.18768 -6.44368 -10.1232 0.632371 5.53638 44.6558 -31.5316 -1.41912 0.693593 9.20612e-012 -3.54505e-011 2.05559e-011 
1.7603 103.881 -36.0046 -1.82925 0.867715 175.33 -0.365493 -21.9786 -7.90632 -19.0874 70.8675 -1.538 1.28813 -5.93317 -0.142776 1.95395 4.77559 2.42671 0.941017 3.44846 0.0948466 1.01246 11.6065 -0.0639943 2.4258 -6.50593 16.366 -7.95139e-016 -3.18055e-015 7.95139e-016 -88.9602 -27.8899 -12.8862 -27.9297 12.5092 -10.1323 0.368473 9.90896 -0.00117926 -18.178 -1.06353 10.7014 103.208 -15.3302 27.1199 17.4996 13.8121 10.083 -0.369625 9.91382 0.00119886 -6.33597 -6.28865 -9.61985 0.591065 6.5893 44.331 -31.8284 -2.18361 0.490442 9.21884e-012 -3.54473e-011 2.05496e-011 
1.66988 103.885 -37.5034 -1.67323 0.855927 175.331 0.450768 -23.9228 -6.14891 -16.8715 70.8702 -3.63199 0.908897 -7.29978 -0.145231 1.64539 3.55613 2.20389 0.559467 3.49384 0.19901 1.26623 12.0693 -0.0939299 2.65536 -6.86146 16.1208 3.97569e-016 0 -0 -89.1312 -26.5965 -14.5846 -27.5945 12.4664 -9.63475 0.368473 9.90896 -0.00117926 -17.5179 -0.949945 10.2277 102.582 -15.8323 26.7372 17.5875 13.8037 10.0786 -0.369625 9.91382 0.00119886 -6.37557 -5.868 -9.16338 0.510826 7.56967 43.4106 -32.1108 -3.19073 0.212631 9.22043e-012 -3.54409e-011 2.05496e-011 
1.59287 103.867 -39.0332 -1.47965 0.94098 175.426 1.27385 -25.4886 -4.57033 -14.6335 70.0804 -5.59568 0.669162 -8.66982 -0.151151 1.49768 2.82126 2.08371 0.192025 3.52248 0.299522 1.52534 12.551 -0.127462 2.89858 -7.06332 15.7552 5.96354e-016 0 -7.95139e-016 -89.4329 -25.4656 -16.5547 -27.1559 12.3535 -8.70186 0.368473 9.90896 -0.00117926 -16.7692 -0.820771 9.64784 101.836 -16.3252 26.2055 17.7694 13.8142 10.1989 -0.369625 9.91382 0.00119886 -6.41085 -5.33061 -8.66866 0.503853 8.58045 42.4061 -32.4151 -4.252 -0.0854182 9.21884e-012 -3.54457e-011 2.05496e-011 
1.48308 103.804 -40.57 -1.29745 1.09145 175.374 2.09638 -26.8114 -2.92855 -12.6 68.6484 -7.19103 0.569863 -9.98156 -0.155043 0.982442 2.08745 1.55037 -0.117934 3.5038 0.408632 1.84892 13.0696 -0.171212 3.04912 -7.05214 15.581 -7.95139e-016 -3.18055e-015 -7.95139e-016 -90.423 -25.0553 -19.3339 -26.622 12.0638 -6.86584 0.368473 9.90896 -0.00117926 -16.2972 -0.734808 9.11787 101.15 -16.6627 25.6291 18.0069 13.8474 10.471 -0.369625 9.91382 0.00119886 -6.54554 -4.72443 -7.96308 0.702375 9.60469 41.7215 -32.7568 -5.20549 -0.35738 9.21248e-012 -3.54441e-011 2.05527e-011 
1.38026 103.709 -42.1209 -1.12495 1.2385 175.3 2.88364 -27.8765 -1.3864 -10.8967 66.4862 -8.39238 0.562034 -11.1579 -0.157235 0.355284 1.44683 0.881129 -0.421814 3.46356 0.515264 2.1878 13.4808 -0.217165 3.11932 -6.88926 15.4266 1.98785e-016 -3.18055e-015 -0 -91.4817 -24.7125 -22.1328 -26.0849 11.752 -4.97155 0.368473 9.90896 -0.00117926 -15.9044 -0.664586 8.63105 100.437 -16.9515 24.909 18.3265 13.8969 10.8377 -0.369625 9.91382 0.00119886 -6.71294 -4.12799 -7.3224 0.942271 10.6756 41.2072 -33.1331 -6.14755 -0.632794 9.21327e-012 -3.54457e-011 2.05527e-011 
1.31549 103.586 -43.6871 -0.981225 1.27877 175.259 3.60747 -28.7396 -0.000142959 -9.47728 63.5109 -9.42483 0.591739 -12.0665 -0.156935 -0.434227 0.748096 0.0257754 -0.767338 3.41872 0.612535 2.5053 13.5813 -0.258083 3.06102 -6.57149 15.2023 9.93923e-016 -3.18055e-015 7.95139e-016 -91.9357 -23.9489 -24.1277 -25.7233 11.5997 -3.87855 0.368473 9.90896 -0.00117926 -15.4984 -0.601591 8.25069 99.6517 -17.2602 23.9229 18.7704 13.9595 11.257 -0.369625 9.91382 0.00119886 -6.85737 -3.68066 -7.04236 1.08785 11.8684 40.9037 -33.5971 -7.16938 -0.943131 9.21089e-012 -3.54425e-011 2.05591e-011 
